# xmcd CD database file
#
# Track frame offsets:
#	150
#	13710
#	32158
#	46645
#	61992
#	80187
#	98533
#	117416
#	139234
#	157388
#	174161
#	188683
#	205198
#	222342
#	239757
#	265487
#	281497
#	296816
#	311957
#	336562
#
# Disc length: 4811 seconds
#
# Revision: 0
# Processed by: cddbd v1.5.2PL0 Copyright (c) Steve Scherf et al.
# Submitted via: CDex 1.51
#
DISCID=3c12c914
DTITLE=Montgomery Gentry - (2009) Favorites
DYEAR=2009
DGENRE=Country
TTITLE0=Bad For Good
TTITLE1=While The World Goes Down The Drain
TTITLE2=Hillbilly Shoes
TTITLE3=If You Ever Stop Loving Me
TTITLE4=If It's The Last Thing I Do
TTITLE5=Your Tears Are Comin'
TTITLE6=Gone
TTITLE7=Hell Yeah
TTITLE8=The Big Revival
TTITLE9=Carrying On
TTITLE10=Ramblin' Man
TTITLE11=What Do Ya Think About That
TTITLE12=Long Line Of Losers
TTITLE13=Black Jack Fletcher and Mississippi Sam
TTITLE14=Tried And True
TTITLE15=All Night Long
TTITLE16=Now You're Talkin'
TTITLE17=Free Ride In The Fast Lane
TTITLE18=I Never Thought I'd Live This Long
TTITLE19=Good Clean Fun
EXTD=YEAR: 2009
EXTT0=
EXTT1=
EXTT2=
EXTT3=
EXTT4=
EXTT5=
EXTT6=
EXTT7=
EXTT8=
EXTT9=
EXTT10=
EXTT11=
EXTT12=
EXTT13=
EXTT14=
EXTT15=
EXTT16=
EXTT17=
EXTT18=
EXTT19=
PLAYORDER=
